<svg width="67" height="71" viewBox="0 0 67 71" fill="none" xmlns="http://www.w3.org/2000/svg">
<path fill-rule="evenodd" clip-rule="evenodd" d="M53.519 4.36476C52.4495 2.781 50.1277 1.77258 48.3864 2.17161C45.9195 2.7346 44.4369 4.54109 44.3201 7.13017C44.2476 8.64898 44.5883 10.075 44.97 11.4546C44.7838 11.4113 44.604 11.3773 44.4432 11.3494C41.156 10.7803 37.6638 10.4555 34.0645 10.3751C33.4778 10.3627 32.8909 10.3565 32.3043 10.3565C28.4746 10.3565 25.3421 10.672 22.4429 11.3494C22.3294 11.3773 22.1812 11.4113 22.0265 11.4608C22.2473 10.6751 22.4651 9.87085 22.588 9.03564C22.9192 6.86415 22.5281 5.1288 21.3956 3.73373C20.5565 2.70056 19.2568 2.10667 17.8246 2.10667C16.1117 2.10667 14.5028 2.92638 13.5281 4.2967C12.1243 6.26714 11.4555 8.62424 11.5438 11.3061C11.6479 14.5943 12.0233 17.5237 12.6858 20.2581C13.7205 24.5208 15.0359 28.8699 16.5912 33.1851C16.9918 34.2924 17.3735 35.409 17.7552 36.5227C18.0801 37.4755 18.4051 38.4251 18.7426 39.3748L20.0171 42.9536V42.9321C21.0014 45.9202 22.3357 48.9888 23.8784 50.9808C24.1401 51.318 24.4177 51.6428 24.6985 51.9706C25.3735 52.7625 26.0109 53.508 26.3452 54.3959C26.5345 54.8877 26.9478 55.9857 28.0045 56.5486C27.9225 56.9107 27.7931 57.0933 27.2663 57.22C26.6132 57.3777 25.9635 57.5261 25.3074 57.6717C23.424 58.0799 21.9666 59.2926 20.8467 61.3835C19.894 63.1623 20.4745 65.2904 22.2254 66.4442C22.9666 66.9299 23.79 67.3196 24.7395 67.6351C27.323 68.4982 30.0834 68.9158 33.1811 68.9158C34.6671 68.9158 36.2286 68.8199 37.9605 68.6249C40.5976 68.328 42.7648 67.6474 44.5851 66.5463C46.5788 65.343 47.194 63.156 46.0834 61.2227C45.336 59.9174 44.0487 58.1232 41.5314 57.6283C41.0266 57.5293 40.5283 57.3963 40.0298 57.2601L39.3328 57.0747C39.2159 57.0467 39.1561 57.0066 39.0078 56.5457C39.0489 56.524 39.0897 56.5023 39.1307 56.4776C39.4998 56.2672 39.6923 55.9673 39.8122 55.7445C40.4778 55.1474 40.8311 54.4328 41.1466 53.7926C41.3453 53.3998 41.5283 53.0285 41.8216 52.6729C43.3643 50.8045 44.9637 48.8681 46.0204 46.48C47.2444 43.7208 48.1087 40.7791 48.544 38.4282C49.8153 35.0039 51.0804 31.2889 52.4053 27.0697C54.2319 21.251 55.1657 16.6947 55.4306 12.2991C55.6198 9.147 54.9953 6.55172 53.519 4.36476ZM46.3673 16.2622C46.6134 16.2622 46.8343 16.1539 47.0267 15.9374C48.0015 14.8455 47.8091 13.4596 47.6544 12.3492L47.5945 11.9192C47.5124 11.2325 47.377 10.5519 47.2413 9.87143C47.093 9.1445 46.9542 8.45469 46.8784 7.75561C46.7459 6.48737 47.1623 5.64906 48.1213 5.26241C48.9762 4.91906 50.0741 5.28715 50.8563 6.17492C52.2476 7.7587 52.4652 9.73532 52.4968 11.6377C52.5567 15.6807 51.8469 19.8721 50.2728 24.8338C50.1466 25.2234 50.0109 25.6102 49.8848 25.9967L49.9353 25.3007C50.0046 24.3852 50.0741 23.4695 50.156 22.557C50.2161 21.9105 50.0488 21.0322 48.9257 20.5155C47.9479 20.0639 46.9825 19.5627 46.0552 19.0214C45.6986 18.8142 45.4178 18.5853 45.2254 18.2171C45.6829 17.6851 46.033 16.9489 46.2886 16.2498C46.3169 16.2529 46.3391 16.2622 46.3673 16.2622ZM19.7856 9.78095C19.6279 10.4275 19.4638 11.0925 19.3944 11.7916C19.325 12.5433 19.2998 13.3383 19.3187 14.2941C19.3345 15.086 19.5711 15.6613 20.0159 16.0016C20.2083 16.147 20.4102 16.2212 20.6153 16.2212C20.6342 16.2212 20.6436 16.215 20.6594 16.215C20.8992 16.9574 21.243 17.7833 21.6942 18.3803C21.5363 18.5938 21.2966 18.8227 20.9149 19.0392L20.6626 19.1815C19.8424 19.6486 19.0632 20.0878 18.2588 20.4219C16.7256 21.056 16.8297 22.3644 16.8644 22.7944L16.9528 23.9667C17.0064 24.6442 17.06 25.3341 17.1168 26.0207C16.3345 23.6203 15.6247 21.1767 15.183 18.6928C14.5647 15.1912 14.1136 12.0298 14.8644 8.80658C15.2146 7.30633 15.8171 6.29481 16.7635 5.62357C17.5237 5.08532 18.2588 4.98325 18.9938 5.32351C19.7604 5.67924 20.1326 6.30719 20.1641 7.29704C20.1925 8.12295 19.9938 8.93031 19.7856 9.78095Z" fill="#292929"/>
</svg>
