<svg width="71" height="71" viewBox="0 0 71 71" fill="none" xmlns="http://www.w3.org/2000/svg">
<path fill-rule="evenodd" clip-rule="evenodd" d="M49.8242 2.61918C49.7031 2.10933 49.6012 1.68233 49.5023 1.2617C48.2116 1.20116 46.9847 1.1438 45.7577 1.08325C42.3382 1.08325 28.6598 1.08325 25.2403 1.08325C24.0164 1.1438 22.7894 1.20116 21.4988 1.2617C21.3968 1.68233 21.2949 2.10933 21.1738 2.61918C17.2984 2.61918 13.4168 2.61918 9.49683 2.61918C9.95575 4.17743 10.4306 5.63371 10.8067 7.11545C11.7978 11.0382 12.636 15.0054 13.7323 18.8963C15.5966 25.5179 19.7587 30.5687 24.7876 34.9503C26.1741 36.158 27.7037 37.1968 29.2143 38.2485C29.7084 38.5926 30.0143 38.9048 29.9473 39.5453C29.8932 40.0552 29.9888 40.5841 29.9218 41.0909C29.8007 42.0436 30.0303 42.6747 31.1807 42.6553C30.3935 45.0678 29.0869 46.8139 26.652 47.5117C25.39 47.8718 24.144 48.3021 22.9044 48.7449C21.3331 49.3092 20.5172 50.4722 20.4567 52.1483C20.3515 55.0448 20.2463 57.9414 20.1444 60.8382C20.1221 61.4404 20.2208 62.0521 19.5388 62.4377C19.3349 62.5493 19.3126 62.9922 19.1851 63.3428C18.4999 63.4479 17.786 63.6168 17.0658 63.6487C16.3169 63.6838 15.8388 63.875 16.03 64.7896C15.6285 64.9201 15.2715 65.0348 14.8636 65.1688C14.8636 65.8857 14.8636 66.6123 14.8636 67.5014C16.9479 67.9092 23.481 69.9167 35.4991 69.9167C47.5201 69.9167 54.0501 67.9092 56.1375 67.5014C56.1375 66.6123 56.1375 65.8857 56.1375 65.1688C55.7297 65.0348 55.3727 64.9201 54.9711 64.7896C55.1623 63.875 54.6844 63.6838 53.9322 63.6487C53.212 63.6168 52.5012 63.4479 51.8129 63.3428C51.6886 62.9922 51.6631 62.5493 51.4623 62.4377C50.7803 62.0521 50.8759 61.4404 50.8568 60.8382C50.7517 57.9414 50.6496 55.0448 50.5444 52.1483C50.4808 50.4722 49.668 49.3092 48.0938 48.7449C46.8573 48.3021 45.611 47.8718 44.349 47.5117C41.9111 46.8139 40.6075 45.0678 39.8205 42.6553C40.9679 42.6747 41.2004 42.0436 41.0761 41.0909C41.0125 40.5841 41.1081 40.0552 41.0537 39.5453C40.9869 38.9048 41.2896 38.5926 41.7868 38.2485C43.2942 37.1968 44.8272 36.158 46.2134 34.9503C51.2393 30.5687 55.4046 25.5179 57.2688 18.8963C58.3653 15.0054 59.2033 11.0382 60.1944 7.11545C60.5674 5.63371 61.0453 4.17743 61.5044 2.61918C57.5812 2.61918 53.7028 2.61918 49.8242 2.61918ZM29.9209 37.0814C29.1752 36.6035 28.5633 36.3295 28.0916 35.8959C23.633 31.8267 20.1593 27.0149 18.1707 21.2568C16.6059 16.7096 15.1304 12.0986 14.9869 7.20079C14.9806 7.0096 14.9869 6.81839 14.9869 6.53479C16.9979 6.53479 18.9132 6.53479 20.9369 6.53479C20.9369 7.02553 20.9816 7.46846 20.9306 7.90185C20.6151 10.6073 21.2078 13.2203 21.6923 15.8428C22.0524 17.8057 23.1742 19.3767 24.3725 20.8872C26.5076 23.5799 28.1107 26.553 28.8819 29.937C29.1242 30.9983 29.1816 32.1039 29.3472 33.1842C29.4874 34.0987 29.2007 35.0961 29.8985 35.9214C30.0483 36.0967 29.9209 36.5143 29.9209 37.0814ZM56.0128 7.20079C55.8661 12.0986 54.3937 16.7096 52.8258 21.2568C50.8402 27.0149 47.3634 31.8267 42.9079 35.8959C42.4365 36.3295 41.8245 36.6035 41.0788 37.0814C41.0788 36.5143 40.9512 36.0967 41.0979 35.9214C41.799 35.0961 41.5121 34.0987 41.6523 33.1842C41.815 32.1039 41.8756 30.9983 42.1176 29.937C42.8889 26.553 44.4888 23.5799 46.6239 20.8872C47.8256 19.3767 48.9474 17.8057 49.3075 15.8428C49.7887 13.2203 50.3845 10.6073 50.0692 7.90185C50.0181 7.46846 50.0627 7.02553 50.0627 6.53479C52.0831 6.53479 54.0017 6.53479 56.0128 6.53479C56.0128 6.81839 56.019 7.0096 56.0128 7.20079Z" fill="#292929"/>
</svg>
